# xmcd CD database file
#
# Track frame offsets:
#	150
#	16315
#	31481
#	50093
#	65474
#	83621
#	95912
#	112808
#	127313
#	152114
#	166372
#	179667
#	200628
#
# Disc length: 2935 seconds
#
# Revision: 1
# Processed by: cddbd v1.5.2PL0 Copyright (c) Steve Scherf et al.
# Submitted via: CDex 1.70beta2
#
DISCID=b80b750d
DTITLE=alex ferreira - un domingo cualquiera
DYEAR=2010
DGENRE=Blues
TTITLE0=altoparlante
TTITLE1=en una nube
TTITLE2=rómpase en caso de incendio
TTITLE3=dije lo que dije
TTITLE4=arraigo
TTITLE5=un domingo cualquiera
TTITLE6=tambores del congo
TTITLE7=sonrisa valiente
TTITLE8=zig zag
TTITLE9=bienvenida la velocidad
TTITLE10=club de jazz
TTITLE11=gravedad
TTITLE12=bienvenida la velocidad ii
EXTD=YEAR: 2010
EXTT0=
EXTT1=
EXTT2=
EXTT3=
EXTT4=
EXTT5=
EXTT6=
EXTT7=
EXTT8=
EXTT9=
EXTT10=
EXTT11=
EXTT12=
PLAYORDER=
